<svg width="36" height="36" viewBox="0 0 36 36" fill="none" xmlns="http://www.w3.org/2000/svg">
<g clip-path="url(#clip0_5_202)">
<path d="M17.9839 0.494142C8.04777 0.490124 0 8.53387 0 18.462C0 26.3129 5.03437 32.9866 12.0455 35.4374C12.9897 35.6745 12.8451 35.0035 12.8451 34.5455V31.4316C7.39286 32.0705 7.17188 28.4624 6.80625 27.8598C6.06696 26.5982 4.3192 26.2767 4.84152 25.6741C6.08304 25.0352 7.34866 25.8348 8.81518 28.0004C9.87589 29.5714 11.9451 29.3062 12.9938 29.045C13.2228 28.1008 13.7129 27.2571 14.3879 26.6022C8.73884 25.5897 6.38438 22.1424 6.38438 18.0441C6.38438 16.0553 7.03929 14.2272 8.325 12.7526C7.50536 10.3218 8.40134 8.24057 8.52188 7.9312C10.8563 7.72227 13.283 9.60262 13.4719 9.75129C14.7978 9.3937 16.3125 9.20486 18.008 9.20486C19.7116 9.20486 21.2304 9.40173 22.5683 9.76334C23.0223 9.4178 25.2723 7.80262 27.442 7.9995C27.5585 8.30887 28.4344 10.3419 27.6629 12.7406C28.9647 14.2191 29.6277 16.0633 29.6277 18.0562C29.6277 22.1624 27.2571 25.6138 21.592 26.6102C22.0772 27.0874 22.4625 27.6565 22.7253 28.2843C22.9882 28.9121 23.1233 29.5859 23.1228 30.2665V34.7866C23.1549 35.1482 23.1228 35.5058 23.7254 35.5058C30.8411 33.1071 35.9638 26.3852 35.9638 18.466C35.9638 8.53387 27.9121 0.494142 17.9839 0.494142Z" fill="black"/>
</g>
<defs>
<clipPath id="clip0_5_202">
<rect width="36" height="36" fill="white"/>
</clipPath>
</defs>
</svg>
